<mxfile host="app.diagrams.net" agent="Mozilla/5.0 (Windows NT 10.0; Win64; x64) AppleWebKit/537.36 (KHTML, like Gecko) Chrome/130.0.0.0 Safari/537.36" version="26.0.8">
  <diagram name="Trang-1" id="5voP6PT0zUlpqcSC1J_p">
    <mxGraphModel dx="1837" dy="983" grid="0" gridSize="10" guides="1" tooltips="1" connect="1" arrows="1" fold="1" page="0" pageScale="1" pageWidth="827" pageHeight="1169" background="none" math="0" shadow="1">
      <root>
        <mxCell id="0" />
        <mxCell id="1" parent="0" />
        <mxCell id="FipX96nuXF0dvHhtkN0n-1" value="WaitEn" style="ellipse;whiteSpace=wrap;html=1;aspect=fixed;fillColor=light-dark(#FF9999,var(--ge-dark-color, #121212));" vertex="1" parent="1">
          <mxGeometry x="120" y="169.5" width="111" height="111" as="geometry" />
        </mxCell>
        <mxCell id="FipX96nuXF0dvHhtkN0n-24" style="edgeStyle=orthogonalEdgeStyle;rounded=0;orthogonalLoop=1;jettySize=auto;html=1;exitX=1;exitY=0.5;exitDx=0;exitDy=0;entryX=0;entryY=0.5;entryDx=0;entryDy=0;" edge="1" parent="1" source="FipX96nuXF0dvHhtkN0n-2" target="FipX96nuXF0dvHhtkN0n-23">
          <mxGeometry relative="1" as="geometry">
            <Array as="points">
              <mxPoint x="315.5" y="224" />
              <mxPoint x="415.5" y="224" />
              <mxPoint x="415.5" y="344" />
            </Array>
          </mxGeometry>
        </mxCell>
        <mxCell id="FipX96nuXF0dvHhtkN0n-2" value="start_frame?" style="rhombus;whiteSpace=wrap;html=1;" vertex="1" parent="1">
          <mxGeometry x="295.5" y="185" width="80" height="80" as="geometry" />
        </mxCell>
        <mxCell id="FipX96nuXF0dvHhtkN0n-3" value="" style="endArrow=classic;html=1;rounded=0;exitX=1;exitY=0.5;exitDx=0;exitDy=0;" edge="1" parent="1" source="FipX96nuXF0dvHhtkN0n-1">
          <mxGeometry width="50" height="50" relative="1" as="geometry">
            <mxPoint x="475.5" y="345" as="sourcePoint" />
            <mxPoint x="295.5" y="225" as="targetPoint" />
          </mxGeometry>
        </mxCell>
        <mxCell id="FipX96nuXF0dvHhtkN0n-9" style="edgeStyle=orthogonalEdgeStyle;rounded=0;orthogonalLoop=1;jettySize=auto;html=1;exitX=1;exitY=0.5;exitDx=0;exitDy=0;entryX=0;entryY=0.5;entryDx=0;entryDy=0;" edge="1" parent="1" source="FipX96nuXF0dvHhtkN0n-5" target="FipX96nuXF0dvHhtkN0n-8">
          <mxGeometry relative="1" as="geometry" />
        </mxCell>
        <mxCell id="FipX96nuXF0dvHhtkN0n-5" value="PreStart" style="ellipse;whiteSpace=wrap;html=1;aspect=fixed;fillColor=light-dark(#CCFFCC,var(--ge-dark-color, #121212));" vertex="1" parent="1">
          <mxGeometry x="465.5" y="184" width="80" height="80" as="geometry" />
        </mxCell>
        <mxCell id="FipX96nuXF0dvHhtkN0n-6" value="" style="endArrow=classic;html=1;rounded=0;exitX=1;exitY=0.5;exitDx=0;exitDy=0;entryX=0;entryY=0.5;entryDx=0;entryDy=0;" edge="1" parent="1" source="FipX96nuXF0dvHhtkN0n-2" target="FipX96nuXF0dvHhtkN0n-5">
          <mxGeometry width="50" height="50" relative="1" as="geometry">
            <mxPoint x="505.5" y="344" as="sourcePoint" />
            <mxPoint x="555.5" y="294" as="targetPoint" />
          </mxGeometry>
        </mxCell>
        <mxCell id="FipX96nuXF0dvHhtkN0n-8" value="Start" style="ellipse;whiteSpace=wrap;html=1;aspect=fixed;fillColor=light-dark(#CCFFCC,var(--ge-dark-color, #121212));" vertex="1" parent="1">
          <mxGeometry x="615.5" y="184" width="80" height="80" as="geometry" />
        </mxCell>
        <mxCell id="FipX96nuXF0dvHhtkN0n-10" value="cnt == DELAY" style="text;html=1;align=center;verticalAlign=middle;resizable=0;points=[];autosize=1;strokeColor=none;fillColor=none;" vertex="1" parent="1">
          <mxGeometry x="530.5" y="182" width="100" height="30" as="geometry" />
        </mxCell>
        <mxCell id="FipX96nuXF0dvHhtkN0n-11" style="edgeStyle=orthogonalEdgeStyle;rounded=0;orthogonalLoop=1;jettySize=auto;html=1;exitX=1;exitY=0.5;exitDx=0;exitDy=0;entryX=0;entryY=0.5;entryDx=0;entryDy=0;" edge="1" parent="1" source="FipX96nuXF0dvHhtkN0n-12" target="FipX96nuXF0dvHhtkN0n-14">
          <mxGeometry relative="1" as="geometry" />
        </mxCell>
        <mxCell id="FipX96nuXF0dvHhtkN0n-12" value="AfterStart" style="ellipse;whiteSpace=wrap;html=1;aspect=fixed;fillColor=light-dark(#CCFFCC,var(--ge-dark-color, #121212));" vertex="1" parent="1">
          <mxGeometry x="765.5" y="185" width="80" height="80" as="geometry" />
        </mxCell>
        <mxCell id="FipX96nuXF0dvHhtkN0n-13" value="" style="endArrow=classic;html=1;rounded=0;exitX=1;exitY=0.5;exitDx=0;exitDy=0;entryX=0;entryY=0.5;entryDx=0;entryDy=0;" edge="1" parent="1" target="FipX96nuXF0dvHhtkN0n-12">
          <mxGeometry width="50" height="50" relative="1" as="geometry">
            <mxPoint x="695.5" y="225" as="sourcePoint" />
            <mxPoint x="845.5" y="295" as="targetPoint" />
          </mxGeometry>
        </mxCell>
        <mxCell id="FipX96nuXF0dvHhtkN0n-14" value="WriteLow" style="ellipse;whiteSpace=wrap;html=1;aspect=fixed;fillColor=light-dark(#FFFFCC,var(--ge-dark-color, #121212));" vertex="1" parent="1">
          <mxGeometry x="915.5" y="185" width="80" height="80" as="geometry" />
        </mxCell>
        <mxCell id="FipX96nuXF0dvHhtkN0n-15" value="cnt == DELAY" style="text;html=1;align=center;verticalAlign=middle;resizable=0;points=[];autosize=1;strokeColor=none;fillColor=none;" vertex="1" parent="1">
          <mxGeometry x="830.5" y="183" width="100" height="30" as="geometry" />
        </mxCell>
        <mxCell id="FipX96nuXF0dvHhtkN0n-16" value="cnt == DELAY" style="text;html=1;align=center;verticalAlign=middle;resizable=0;points=[];autosize=1;strokeColor=none;fillColor=none;" vertex="1" parent="1">
          <mxGeometry x="680.5" y="182" width="100" height="30" as="geometry" />
        </mxCell>
        <mxCell id="FipX96nuXF0dvHhtkN0n-17" style="edgeStyle=orthogonalEdgeStyle;rounded=0;orthogonalLoop=1;jettySize=auto;html=1;exitX=1;exitY=0.5;exitDx=0;exitDy=0;entryX=0;entryY=0.5;entryDx=0;entryDy=0;" edge="1" parent="1" source="FipX96nuXF0dvHhtkN0n-18">
          <mxGeometry relative="1" as="geometry">
            <mxPoint x="1215.5" y="224" as="targetPoint" />
          </mxGeometry>
        </mxCell>
        <mxCell id="FipX96nuXF0dvHhtkN0n-18" value="WriteHigh" style="ellipse;whiteSpace=wrap;html=1;aspect=fixed;fillColor=light-dark(#FFFFCC,var(--ge-dark-color, #121212));" vertex="1" parent="1">
          <mxGeometry x="1065.5" y="184" width="80" height="80" as="geometry" />
        </mxCell>
        <mxCell id="FipX96nuXF0dvHhtkN0n-19" value="" style="endArrow=classic;html=1;rounded=0;exitX=1;exitY=0.5;exitDx=0;exitDy=0;entryX=0;entryY=0.5;entryDx=0;entryDy=0;" edge="1" parent="1" target="FipX96nuXF0dvHhtkN0n-18">
          <mxGeometry width="50" height="50" relative="1" as="geometry">
            <mxPoint x="995.5" y="224" as="sourcePoint" />
            <mxPoint x="1145.5" y="294" as="targetPoint" />
          </mxGeometry>
        </mxCell>
        <mxCell id="FipX96nuXF0dvHhtkN0n-21" value="cnt == DELAY" style="text;html=1;align=center;verticalAlign=middle;resizable=0;points=[];autosize=1;strokeColor=none;fillColor=none;" vertex="1" parent="1">
          <mxGeometry x="1130.5" y="182" width="100" height="30" as="geometry" />
        </mxCell>
        <mxCell id="FipX96nuXF0dvHhtkN0n-22" value="cnt == DELAY" style="text;html=1;align=center;verticalAlign=middle;resizable=0;points=[];autosize=1;strokeColor=none;fillColor=none;" vertex="1" parent="1">
          <mxGeometry x="980.5" y="182" width="100" height="30" as="geometry" />
        </mxCell>
        <mxCell id="FipX96nuXF0dvHhtkN0n-27" style="edgeStyle=orthogonalEdgeStyle;rounded=0;orthogonalLoop=1;jettySize=auto;html=1;exitX=1;exitY=0.5;exitDx=0;exitDy=0;entryX=0.5;entryY=1;entryDx=0;entryDy=0;" edge="1" parent="1" source="FipX96nuXF0dvHhtkN0n-23" target="FipX96nuXF0dvHhtkN0n-14">
          <mxGeometry relative="1" as="geometry" />
        </mxCell>
        <mxCell id="FipX96nuXF0dvHhtkN0n-23" value="PreWrite" style="ellipse;whiteSpace=wrap;html=1;aspect=fixed;fillColor=light-dark(#FFF2CC,var(--ge-dark-color, #121212));" vertex="1" parent="1">
          <mxGeometry x="465.5" y="304" width="80" height="80" as="geometry" />
        </mxCell>
        <mxCell id="FipX96nuXF0dvHhtkN0n-28" value="cnt==DELAY" style="text;html=1;align=center;verticalAlign=middle;resizable=0;points=[];autosize=1;strokeColor=none;fillColor=none;" vertex="1" parent="1">
          <mxGeometry x="685.5" y="314" width="90" height="30" as="geometry" />
        </mxCell>
        <mxCell id="FipX96nuXF0dvHhtkN0n-31" style="edgeStyle=orthogonalEdgeStyle;rounded=0;orthogonalLoop=1;jettySize=auto;html=1;exitX=1;exitY=0.5;exitDx=0;exitDy=0;entryX=0;entryY=0.5;entryDx=0;entryDy=0;" edge="1" parent="1" source="FipX96nuXF0dvHhtkN0n-29" target="FipX96nuXF0dvHhtkN0n-30">
          <mxGeometry relative="1" as="geometry" />
        </mxCell>
        <mxCell id="FipX96nuXF0dvHhtkN0n-33" style="edgeStyle=orthogonalEdgeStyle;rounded=0;orthogonalLoop=1;jettySize=auto;html=1;exitX=0.5;exitY=0;exitDx=0;exitDy=0;entryX=0.5;entryY=0;entryDx=0;entryDy=0;" edge="1" parent="1" source="FipX96nuXF0dvHhtkN0n-29" target="FipX96nuXF0dvHhtkN0n-14">
          <mxGeometry relative="1" as="geometry">
            <Array as="points">
              <mxPoint x="1255.5" y="144" />
              <mxPoint x="955.5" y="144" />
            </Array>
          </mxGeometry>
        </mxCell>
        <mxCell id="FipX96nuXF0dvHhtkN0n-29" value="bit_cnt == 8" style="rhombus;whiteSpace=wrap;html=1;" vertex="1" parent="1">
          <mxGeometry x="1215.5" y="185" width="80" height="80" as="geometry" />
        </mxCell>
        <mxCell id="FipX96nuXF0dvHhtkN0n-50" style="edgeStyle=orthogonalEdgeStyle;rounded=0;orthogonalLoop=1;jettySize=auto;html=1;exitX=0.5;exitY=1;exitDx=0;exitDy=0;entryX=0.5;entryY=0;entryDx=0;entryDy=0;" edge="1" parent="1" source="FipX96nuXF0dvHhtkN0n-30" target="FipX96nuXF0dvHhtkN0n-49">
          <mxGeometry relative="1" as="geometry" />
        </mxCell>
        <mxCell id="FipX96nuXF0dvHhtkN0n-30" value="WriteDone" style="ellipse;whiteSpace=wrap;html=1;aspect=fixed;fillColor=light-dark(#FFFFCC,var(--ge-dark-color, #121212));" vertex="1" parent="1">
          <mxGeometry x="1356.5" y="185" width="80" height="80" as="geometry" />
        </mxCell>
        <mxCell id="FipX96nuXF0dvHhtkN0n-32" value="YES" style="text;html=1;align=center;verticalAlign=middle;resizable=0;points=[];autosize=1;strokeColor=none;fillColor=none;" vertex="1" parent="1">
          <mxGeometry x="1295.5" y="182" width="50" height="30" as="geometry" />
        </mxCell>
        <mxCell id="FipX96nuXF0dvHhtkN0n-34" value="NO" style="text;html=1;align=center;verticalAlign=middle;resizable=0;points=[];autosize=1;strokeColor=none;fillColor=none;" vertex="1" parent="1">
          <mxGeometry x="1085.5" y="114" width="40" height="30" as="geometry" />
        </mxCell>
        <mxCell id="FipX96nuXF0dvHhtkN0n-35" value="YES" style="text;html=1;align=center;verticalAlign=middle;resizable=0;points=[];autosize=1;strokeColor=none;fillColor=none;" vertex="1" parent="1">
          <mxGeometry x="415.5" y="182" width="50" height="30" as="geometry" />
        </mxCell>
        <mxCell id="FipX96nuXF0dvHhtkN0n-44" value="NO" style="text;html=1;align=center;verticalAlign=middle;resizable=0;points=[];autosize=1;strokeColor=none;fillColor=none;rotation=270;" vertex="1" parent="1">
          <mxGeometry x="375.5" y="264" width="40" height="30" as="geometry" />
        </mxCell>
        <mxCell id="FipX96nuXF0dvHhtkN0n-48" value="en_write" style="text;html=1;align=center;verticalAlign=middle;resizable=0;points=[];autosize=1;strokeColor=none;fillColor=none;" vertex="1" parent="1">
          <mxGeometry x="231" y="183" width="70" height="30" as="geometry" />
        </mxCell>
        <mxCell id="FipX96nuXF0dvHhtkN0n-53" style="edgeStyle=orthogonalEdgeStyle;rounded=0;orthogonalLoop=1;jettySize=auto;html=1;exitX=0;exitY=0.5;exitDx=0;exitDy=0;entryX=1;entryY=0.5;entryDx=0;entryDy=0;" edge="1" parent="1" source="FipX96nuXF0dvHhtkN0n-49" target="FipX96nuXF0dvHhtkN0n-52">
          <mxGeometry relative="1" as="geometry" />
        </mxCell>
        <mxCell id="FipX96nuXF0dvHhtkN0n-49" value="WaitACK" style="ellipse;whiteSpace=wrap;html=1;aspect=fixed;fillColor=light-dark(#FFFFCC,var(--ge-dark-color, #121212));" vertex="1" parent="1">
          <mxGeometry x="1356.5" y="464" width="80" height="80" as="geometry" />
        </mxCell>
        <mxCell id="FipX96nuXF0dvHhtkN0n-51" value="cnt == DELAY" style="text;html=1;align=center;verticalAlign=middle;resizable=0;points=[];autosize=1;strokeColor=none;fillColor=none;rotation=270;" vertex="1" parent="1">
          <mxGeometry x="1325.5" y="354" width="100" height="30" as="geometry" />
        </mxCell>
        <mxCell id="FipX96nuXF0dvHhtkN0n-56" style="edgeStyle=orthogonalEdgeStyle;rounded=0;orthogonalLoop=1;jettySize=auto;html=1;exitX=0;exitY=0.5;exitDx=0;exitDy=0;entryX=1;entryY=0.5;entryDx=0;entryDy=0;" edge="1" parent="1" source="FipX96nuXF0dvHhtkN0n-52" target="FipX96nuXF0dvHhtkN0n-54">
          <mxGeometry relative="1" as="geometry" />
        </mxCell>
        <mxCell id="FipX96nuXF0dvHhtkN0n-61" style="edgeStyle=orthogonalEdgeStyle;rounded=0;orthogonalLoop=1;jettySize=auto;html=1;exitX=0.5;exitY=1;exitDx=0;exitDy=0;entryX=0.5;entryY=1;entryDx=0;entryDy=0;" edge="1" parent="1" source="FipX96nuXF0dvHhtkN0n-52" target="FipX96nuXF0dvHhtkN0n-49">
          <mxGeometry relative="1" as="geometry">
            <Array as="points">
              <mxPoint x="1255.5" y="584" />
              <mxPoint x="1396.5" y="584" />
            </Array>
          </mxGeometry>
        </mxCell>
        <mxCell id="FipX96nuXF0dvHhtkN0n-52" value="sda_in == 0" style="rhombus;whiteSpace=wrap;html=1;" vertex="1" parent="1">
          <mxGeometry x="1215.5" y="464" width="80" height="80" as="geometry" />
        </mxCell>
        <mxCell id="FipX96nuXF0dvHhtkN0n-57" style="edgeStyle=orthogonalEdgeStyle;rounded=0;orthogonalLoop=1;jettySize=auto;html=1;exitX=0;exitY=0.5;exitDx=0;exitDy=0;entryX=1;entryY=0.5;entryDx=0;entryDy=0;" edge="1" parent="1" source="FipX96nuXF0dvHhtkN0n-54" target="FipX96nuXF0dvHhtkN0n-55">
          <mxGeometry relative="1" as="geometry" />
        </mxCell>
        <mxCell id="FipX96nuXF0dvHhtkN0n-54" value="Ack1" style="ellipse;whiteSpace=wrap;html=1;aspect=fixed;fillColor=light-dark(#FFFFCC,var(--ge-dark-color, #121212));" vertex="1" parent="1">
          <mxGeometry x="1065.5" y="464" width="80" height="80" as="geometry" />
        </mxCell>
        <mxCell id="FipX96nuXF0dvHhtkN0n-65" style="edgeStyle=orthogonalEdgeStyle;rounded=0;orthogonalLoop=1;jettySize=auto;html=1;exitX=0;exitY=0.5;exitDx=0;exitDy=0;entryX=1;entryY=0.5;entryDx=0;entryDy=0;" edge="1" parent="1" source="FipX96nuXF0dvHhtkN0n-55" target="FipX96nuXF0dvHhtkN0n-64">
          <mxGeometry relative="1" as="geometry" />
        </mxCell>
        <mxCell id="FipX96nuXF0dvHhtkN0n-55" value="Ack2" style="ellipse;whiteSpace=wrap;html=1;aspect=fixed;fillColor=light-dark(#FFFFCC,var(--ge-dark-color, #121212));" vertex="1" parent="1">
          <mxGeometry x="915.5" y="464" width="80" height="80" as="geometry" />
        </mxCell>
        <mxCell id="FipX96nuXF0dvHhtkN0n-58" value="cnt == DELAY" style="text;html=1;align=center;verticalAlign=middle;resizable=0;points=[];autosize=1;strokeColor=none;fillColor=none;" vertex="1" parent="1">
          <mxGeometry x="980.5" y="464" width="100" height="30" as="geometry" />
        </mxCell>
        <mxCell id="FipX96nuXF0dvHhtkN0n-59" value="YES" style="text;html=1;align=center;verticalAlign=middle;resizable=0;points=[];autosize=1;strokeColor=none;fillColor=none;" vertex="1" parent="1">
          <mxGeometry x="1155.5" y="464" width="50" height="30" as="geometry" />
        </mxCell>
        <mxCell id="FipX96nuXF0dvHhtkN0n-60" value="cnt == DELAY" style="text;html=1;align=center;verticalAlign=middle;resizable=0;points=[];autosize=1;strokeColor=none;fillColor=none;" vertex="1" parent="1">
          <mxGeometry x="830.5" y="464" width="100" height="30" as="geometry" />
        </mxCell>
        <mxCell id="FipX96nuXF0dvHhtkN0n-63" value="NO" style="text;html=1;align=center;verticalAlign=middle;resizable=0;points=[];autosize=1;strokeColor=none;fillColor=none;rotation=270;" vertex="1" parent="1">
          <mxGeometry x="1215.5" y="539" width="40" height="30" as="geometry" />
        </mxCell>
        <mxCell id="FipX96nuXF0dvHhtkN0n-68" style="edgeStyle=orthogonalEdgeStyle;rounded=0;orthogonalLoop=1;jettySize=auto;html=1;exitX=0;exitY=0.5;exitDx=0;exitDy=0;entryX=1;entryY=0.5;entryDx=0;entryDy=0;" edge="1" parent="1" source="FipX96nuXF0dvHhtkN0n-64" target="FipX96nuXF0dvHhtkN0n-67">
          <mxGeometry relative="1" as="geometry" />
        </mxCell>
        <mxCell id="FipX96nuXF0dvHhtkN0n-64" value="AckDone" style="ellipse;whiteSpace=wrap;html=1;aspect=fixed;fillColor=light-dark(#FFFFCC,var(--ge-dark-color, #121212));" vertex="1" parent="1">
          <mxGeometry x="765.5" y="464" width="80" height="80" as="geometry" />
        </mxCell>
        <mxCell id="FipX96nuXF0dvHhtkN0n-66" value="cnt == DELAY" style="text;html=1;align=center;verticalAlign=middle;resizable=0;points=[];autosize=1;strokeColor=none;fillColor=none;" vertex="1" parent="1">
          <mxGeometry x="680.5" y="464" width="100" height="30" as="geometry" />
        </mxCell>
        <mxCell id="FipX96nuXF0dvHhtkN0n-70" style="edgeStyle=orthogonalEdgeStyle;rounded=0;orthogonalLoop=1;jettySize=auto;html=1;exitX=0;exitY=0.5;exitDx=0;exitDy=0;entryX=1;entryY=0.5;entryDx=0;entryDy=0;" edge="1" parent="1" source="FipX96nuXF0dvHhtkN0n-67" target="FipX96nuXF0dvHhtkN0n-69">
          <mxGeometry relative="1" as="geometry" />
        </mxCell>
        <mxCell id="FipX96nuXF0dvHhtkN0n-79" style="edgeStyle=orthogonalEdgeStyle;rounded=0;orthogonalLoop=1;jettySize=auto;html=1;exitX=0.5;exitY=1;exitDx=0;exitDy=0;entryX=0.5;entryY=1;entryDx=0;entryDy=0;" edge="1" parent="1" source="FipX96nuXF0dvHhtkN0n-67" target="FipX96nuXF0dvHhtkN0n-75">
          <mxGeometry relative="1" as="geometry">
            <Array as="points">
              <mxPoint x="655.5" y="584" />
              <mxPoint x="175.5" y="584" />
            </Array>
          </mxGeometry>
        </mxCell>
        <mxCell id="FipX96nuXF0dvHhtkN0n-67" value="stop_frame?" style="rhombus;whiteSpace=wrap;html=1;" vertex="1" parent="1">
          <mxGeometry x="615.5" y="464" width="80" height="80" as="geometry" />
        </mxCell>
        <mxCell id="FipX96nuXF0dvHhtkN0n-74" style="edgeStyle=orthogonalEdgeStyle;rounded=0;orthogonalLoop=1;jettySize=auto;html=1;exitX=0;exitY=0.5;exitDx=0;exitDy=0;" edge="1" parent="1" source="FipX96nuXF0dvHhtkN0n-69" target="FipX96nuXF0dvHhtkN0n-72">
          <mxGeometry relative="1" as="geometry" />
        </mxCell>
        <mxCell id="FipX96nuXF0dvHhtkN0n-69" value="PreStop" style="ellipse;whiteSpace=wrap;html=1;aspect=fixed;fillColor=light-dark(#FFCCE6,var(--ge-dark-color, #121212));" vertex="1" parent="1">
          <mxGeometry x="465.5" y="464" width="80" height="80" as="geometry" />
        </mxCell>
        <mxCell id="FipX96nuXF0dvHhtkN0n-71" value="YES" style="text;html=1;align=center;verticalAlign=middle;resizable=0;points=[];autosize=1;strokeColor=none;fillColor=none;" vertex="1" parent="1">
          <mxGeometry x="555.5" y="464" width="50" height="30" as="geometry" />
        </mxCell>
        <mxCell id="FipX96nuXF0dvHhtkN0n-77" style="edgeStyle=orthogonalEdgeStyle;rounded=0;orthogonalLoop=1;jettySize=auto;html=1;exitX=0;exitY=0.5;exitDx=0;exitDy=0;" edge="1" parent="1" source="FipX96nuXF0dvHhtkN0n-72" target="FipX96nuXF0dvHhtkN0n-75">
          <mxGeometry relative="1" as="geometry" />
        </mxCell>
        <mxCell id="FipX96nuXF0dvHhtkN0n-72" value="Stop" style="ellipse;whiteSpace=wrap;html=1;aspect=fixed;fillColor=light-dark(#FFCCE6,var(--ge-dark-color, #121212));" vertex="1" parent="1">
          <mxGeometry x="295.5" y="464" width="80" height="80" as="geometry" />
        </mxCell>
        <mxCell id="FipX96nuXF0dvHhtkN0n-73" value="cnt == DELAY" style="text;html=1;align=center;verticalAlign=middle;resizable=0;points=[];autosize=1;strokeColor=none;fillColor=none;" vertex="1" parent="1">
          <mxGeometry x="365.5" y="464" width="100" height="30" as="geometry" />
        </mxCell>
        <mxCell id="FipX96nuXF0dvHhtkN0n-78" style="edgeStyle=orthogonalEdgeStyle;rounded=0;orthogonalLoop=1;jettySize=auto;html=1;exitX=0.5;exitY=0;exitDx=0;exitDy=0;entryX=0.5;entryY=1;entryDx=0;entryDy=0;" edge="1" parent="1" source="FipX96nuXF0dvHhtkN0n-75" target="FipX96nuXF0dvHhtkN0n-1">
          <mxGeometry relative="1" as="geometry" />
        </mxCell>
        <mxCell id="FipX96nuXF0dvHhtkN0n-75" value="Done" style="ellipse;whiteSpace=wrap;html=1;aspect=fixed;fillColor=light-dark(#FFFFCC,var(--ge-dark-color, #121212));" vertex="1" parent="1">
          <mxGeometry x="135.5" y="464" width="80" height="80" as="geometry" />
        </mxCell>
        <mxCell id="FipX96nuXF0dvHhtkN0n-76" value="cnt == DELAY" style="text;html=1;align=center;verticalAlign=middle;resizable=0;points=[];autosize=1;strokeColor=none;fillColor=none;" vertex="1" parent="1">
          <mxGeometry x="205.5" y="464" width="100" height="30" as="geometry" />
        </mxCell>
        <mxCell id="FipX96nuXF0dvHhtkN0n-80" value="NO" style="text;html=1;align=center;verticalAlign=middle;resizable=0;points=[];autosize=1;strokeColor=none;fillColor=none;rotation=270;" vertex="1" parent="1">
          <mxGeometry x="625.5" y="544" width="40" height="30" as="geometry" />
        </mxCell>
        <mxCell id="FipX96nuXF0dvHhtkN0n-83" value="&lt;font style=&quot;font-size: 24px;&quot;&gt;i2c_writeframe FSM&lt;/font&gt;" style="text;html=1;align=center;verticalAlign=middle;resizable=0;points=[];autosize=1;strokeColor=none;fillColor=none;" vertex="1" parent="1">
          <mxGeometry x="695.5" y="40" width="240" height="40" as="geometry" />
        </mxCell>
      </root>
    </mxGraphModel>
  </diagram>
</mxfile>
